ply
format ascii 1.0
element vertex 106
property float x
property float y
property float z
end_header 
-9.571402 14.878676 -86.429856
-7.023134 8.716681 -57.577468
-7.544168 -3.349089 29.888165
-4.507913 2.016357 -30.690823
-0.110096 0.013838 -0.604030
-0.350639 0.067211 5.847905
-1.301140 -0.045843 -10.679409
-7.097116 -3.022977 29.097572
5.965104 2.115743 -29.384865
0.199952 0.044909 -0.690161
0.199925 0.044431 -0.690303
-12.851531 1.639812 -30.518709
-7.259364 0.532258 -23.239049
2.672675 0.079064 -12.630734
0.238374 -0.013855 -0.370720
-18.763940 2.150892 47.842802
-7.874606 2.066007 36.354186
8.180846 6.835693 48.008678
26.020727 3.863068 -46.648015
-35.497117 -1.803228 83.062717
0.642684 -0.071494 1.380236
0.034466 0.002508 -0.344481
-0.223030 0.023157 0.521442
-2.613751 -10.261704 -75.780180
5.478900 3.792844 28.037063
-2.395615 2.415953 -24.753958
4.372407 0.626097 -7.822149
7.428800 1.045903 -13.593500
-8.183596 -1.126594 15.241566
-61.616026 -8.540702 117.829749
-2.341793 -0.204648 3.329275
11.391958 -2.207766 22.709709
-15.017969 -1.359388 26.824180
-0.067009 -0.543612 7.987661
-1.292722 -0.035947 1.460048
-21.547831 1.910257 43.192503
-2.950443 1.003338 22.853286
-13.490954 2.742219 48.312393
-4.892792 -1.578372 -34.438786
35.908016 -4.549481 -53.046649
-15.980670 4.783308 28.857419
1.682169 0.646857 3.974142
-3.967556 -0.588259 4.922457
14.247594 -4.019408 26.448208
-45.189608 -6.048331 53.878580
-6.339340 -0.942307 8.467133
-18.704102 -2.638274 25.463553
-6.627818 -0.863786 9.233989
-11.670741 -1.517654 16.952573
-178.201723 -23.464339 274.396825
-14.897580 -2.029958 37.980217
-14.943552 -1.512177 38.271330
-0.017763 0.083758 -2.137947
-14.509349 -0.604732 25.445451
73.950393 -12.429306 269.484560
0.086923 0.011205 -1.111428
-6.539244 0.038343 21.463854
-26.459683 0.922143 34.429865
-19.280272 0.819444 41.967705
-0.087869 0.008521 -0.412820
-0.328429 -0.007531 -0.585910
-16.272398 1.055298 31.199996
0.296606 -0.022618 -0.351571
-0.967403 -0.082041 -2.569122
-0.986104 -0.083328 -2.599661
-0.337917 -0.024816 -0.558474
18.967005 3.660556 32.649514
8.744947 2.723167 21.947705
-0.202937 0.040227 0.265939
2.310813 1.764778 10.693342
3.117009 2.434780 14.260457
1.926111 0.675840 3.746620
0.911620 0.261399 1.301711
0.827948 0.259471 1.174896
0.360185 0.054377 -0.415842
-14.729820 -0.424946 25.592330
-1.888685 -0.109993 -13.498679
-2.580240 0.323475 13.890064
562.597571 -115.150969 -741.755499
0.260355 -0.071304 -0.431197
-35.607830 -4.725590 42.955789
-18.082694 -2.103061 23.369886
-22.790199 -2.419906 29.699396
-34.365238 -3.554640 45.288768
9.454401 1.172451 -15.180672
0.664617 -0.141778 1.417247
-2.443116 -0.229338 13.530314
-0.255170 0.025769 -0.633814
-5.073040 0.002231 -9.075888
-30.228544 4.322329 57.348044
543.938893 36.155227 771.748128
13.367858 1.649606 25.613460
-4.252696 -0.610072 -8.566223
19.116325 2.480571 33.978117
0.122031 -0.032793 -0.274447
3.219494 0.953616 5.167618
2273.983862 712.767487 3440.837724
14.809266 4.575597 21.560841
-1.683738 1.720718 19.459959
0.250778 0.100437 -0.580232
0.236965 0.035569 -0.411303
-133.008456 -17.635646 163.206906
13.339715 -2.761057 23.851331
0.636832 -0.137374 1.318530
-11.436752 -1.535978 23.494060
-1.317368 0.237078 -9.370920
